<svg xmlns="http://www.w3.org/2000/svg" xmlns:xlink="http://www.w3.org/1999/xlink" width="128" height="32" viewBox="0 0 1380 344.35" enable-background="new 0 0 306 344.35" xml:space="preserve">
<rect width="100%" height="100%" fill="black"/>
<path fill="#00599C" d="M302.107,258.262c2.401-4.159,3.893-8.845,3.893-13.053V99.14c0-4.208-1.49-8.893-3.892-13.052L153,172.175
	L302.107,258.262z"/>
<path fill="#004482" d="M166.25,341.193l126.5-73.034c3.644-2.104,6.956-5.737,9.357-9.897L153,172.175L3.893,258.263
	c2.401,4.159,5.714,7.793,9.357,9.896l126.5,73.034C147.037,345.401,158.963,345.401,166.25,341.193z"/>
<path fill="#659AD2" d="M302.108,86.087c-2.402-4.16-5.715-7.793-9.358-9.897L166.25,3.156c-7.287-4.208-19.213-4.208-26.5,0
	L13.25,76.19C5.962,80.397,0,90.725,0,99.14v146.069c0,4.208,1.491,8.894,3.893,13.053L153,172.175L302.108,86.087z"/>
<g>
	<path fill="#FFFFFF" d="M153,274.175c-56.243,0-102-45.757-102-102s45.757-102,102-102c36.292,0,70.139,19.53,88.331,50.968
		l-44.143,25.544c-9.105-15.736-26.038-25.512-44.188-25.512c-28.122,0-51,22.878-51,51c0,28.121,22.878,51,51,51
		c18.152,0,35.085-9.776,44.191-25.515l44.143,25.543C223.142,254.644,189.294,274.175,153,274.175z"/>
</g>
<g>
	<polygon fill="#FFFFFF" points="255,166.508 243.666,166.508 243.666,155.175 232.334,155.175 232.334,166.508 221,166.508 
		221,177.841 232.334,177.841 232.334,189.175 243.666,189.175 243.666,177.841 255,177.841 	"/>
</g>
<g>
	<polygon fill="#FFFFFF" points="297.5,166.508 286.166,166.508 286.166,155.175 274.834,155.175 274.834,166.508 263.5,166.508 
		263.5,177.841 274.834,177.841 274.834,189.175 286.166,189.175 286.166,177.841 297.5,177.841 	"/>
</g>
  <path fill="white"
        d="M 736.31,123.48
           C 722.39,123.48 711.75,128.69 704.39,139.09
             697.04,149.49 693.36,163.73 693.36,181.80
             693.36,200.04 696.76,214.16 703.56,224.16
             710.36,234.16 721.28,239.16 736.31,239.16
             743.35,239.16 750.35,238.36 757.31,236.77
             764.28,235.16 771.84,232.92 780.00,230.05
             780.00,230.05 780.00,260.52 780.00,260.52
             772.48,263.56 765.04,265.80 757.67,267.23
             750.32,268.68 742.08,269.41 732.95,269.41
             715.36,269.41 700.84,265.77 689.39,258.48
             677.95,251.20 669.52,240.96 664.08,227.77
             658.64,214.56 655.92,199.16 655.92,181.56
             655.92,164.28 659.04,149.00 665.28,135.72
             671.52,122.44 680.60,112.04 692.52,104.52
             704.44,97.00 719.04,93.23 736.31,93.23
             744.80,93.23 753.32,94.32 761.88,96.48
             770.44,98.64 778.64,101.56 786.48,105.23
             786.48,105.23 774.72,134.77 774.72,134.77
             768.32,131.73 761.88,129.09 755.41,126.84
             748.93,124.61 742.56,123.48 736.31,123.48 Z
           M 876.36,169.56
           C 876.36,169.56 921.72,169.56 921.72,169.56
             921.72,169.56 921.72,195.23 921.72,195.23
             921.72,195.23 876.36,195.23 876.36,195.23
             876.36,195.23 876.36,240.36 876.36,240.36
             876.36,240.36 850.69,240.36 850.69,240.36
             850.69,240.36 850.69,195.23 850.69,195.23
             850.69,195.23 805.31,195.23 805.31,195.23
             805.31,195.23 805.31,169.56 805.31,169.56
             805.31,169.56 850.69,169.56 850.69,169.56
             850.69,169.56 850.69,123.95 850.69,123.95
             850.69,123.95 876.36,123.95 876.36,123.95
             876.36,123.95 876.36,169.56 876.36,169.56 Z
           M 1013.36,169.56
           C 1013.36,169.56 1058.72,169.56 1058.72,169.56
             1058.72,169.56 1058.72,195.23 1058.72,195.23
             1058.72,195.23 1013.36,195.23 1013.36,195.23
             1013.36,195.23 1013.36,240.36 1013.36,240.36
             1013.36,240.36 987.69,240.36 987.69,240.36
             987.69,240.36 987.69,195.23 987.69,195.23
             987.69,195.23 942.31,195.23 942.31,195.23
             942.31,195.23 942.31,169.56 942.31,169.56
             942.31,169.56 987.69,169.56 987.69,169.56
             987.69,169.56 987.69,123.95 987.69,123.95
             987.69,123.95 1013.36,123.95 1013.36,123.95
             1013.36,123.95 1013.36,169.56 1013.36,169.56 Z" />
</svg>
